<?xml version="1.0" encoding="UTF-8"?>
<svg width="45px" height="45px" viewBox="0 0 45 45" version="1.1" xmlns="http://www.w3.org/2000/svg" xmlns:xlink="http://www.w3.org/1999/xlink">
    <!-- Generator: Sketch 52.3 (67297) - http://www.bohemiancoding.com/sketch -->
    <title>Icons/EnlargeImg</title>
    <desc>Created with Sketch.</desc>
    <defs>
        <path d="M3,3 L3,10.5 L0,10.5 L0,0 L10.5,0 L10.5,3 L3,3 Z M3,42 L10.5,42 L10.5,45 L0,45 L0,34.5 L3,34.5 L3,42 Z M42,3 L34.5,3 L34.5,0 L45,0 L45,10.5 L42,10.5 L42,3 Z M24,20.8916016 L29.8916016,20.8916016 L29.8916016,23.8916016 L24,23.8916016 L24,29.7832031 L21,29.7832031 L21,23.8916016 L15.1083984,23.8916016 L15.1083984,20.8916016 L21,20.8916016 L21,15 L24,15 L24,20.8916016 Z M42,42 L42,34.5 L45,34.5 L45,45 L34.5,45 L34.5,42 L42,42 Z" id="path-1"></path>
    </defs>
    <g id="Icons/EnlargeImg" stroke="none" stroke-width="1" fill="none" fill-rule="evenodd">
        <mask id="mask-2" fill="white">
            <use xlink:href="#path-1"></use>
        </mask>
        <use id="Combined-Shape" fill="#FFFFFF" fill-rule="nonzero" xlink:href="#path-1"></use>
        <g id="Colours/Flat/Black" mask="url(#mask-2)" fill="#FFFFFF" fill-rule="nonzero">
            <rect id="Rectangle" x="0" y="0" width="45" height="45"></rect>
        </g>
    </g>
</svg>
