<?xml version="1.0" encoding="UTF-8"?>
<svg width="46px" height="45px" viewBox="0 0 46 45" version="1.1" xmlns="http://www.w3.org/2000/svg" xmlns:xlink="http://www.w3.org/1999/xlink">
    <!-- Generator: Sketch 53.2 (72643) - https://sketchapp.com -->
    <title>Buttons/SoundPlay</title>
    <desc>Created with Sketch.</desc>
    <defs>
        <ellipse id="path-1" cx="22" cy="21.5217391" rx="22" ry="21.5217391"></ellipse>
        <path d="M23,45 C10.3025307,45 0,34.9316177 0,22.5 C0,10.0683823 10.3025307,0 23,0 C35.6974693,0 46,10.0683823 46,22.5 C46,34.9316177 35.6974693,45 23,45 Z M23,43.0434783 C34.6030597,43.0434783 44,33.8406279 44,22.5 C44,11.1593721 34.6030597,1.95652174 23,1.95652174 C11.3969403,1.95652174 2,11.1593721 2,22.5 C2,33.8406279 11.3969403,43.0434783 23,43.0434783 Z M19,15.9231759 L19,29.0768241 L30.0731365,22.5 L19,15.9231759 Z M17,32.5536107 L17,12.4463893 L33.9268635,22.5 L17,32.5536107 Z" id="path-3"></path>
    </defs>
    <g id="Build-assets-800x1280" stroke="none" stroke-width="1" fill="none" fill-rule="evenodd">
        <g id="Audio" transform="translate(-30.000000, -524.000000)">
            <g id="Buttons/Sound/Play/Default" transform="translate(30.000000, 524.000000)">
                <g id="BG" stroke-width="1" fill-rule="evenodd" transform="translate(1.000000, 0.978261)">
                    <mask id="mask-2" fill="white">
                        <use xlink:href="#path-1"></use>
                    </mask>
                    <g id="Oval" fill-rule="nonzero"></g>
                    <g id="Colours/Flat/Black" opacity="0.5" mask="url(#mask-2)" fill="#111111" fill-rule="nonzero">
                        <g transform="translate(-1.000000, -0.978261)" id="Rectangle">
                            <rect x="0" y="0" width="46" height="45"></rect>
                        </g>
                    </g>
                </g>
                <mask id="mask-4" fill="white">
                    <use xlink:href="#path-3"></use>
                </mask>
                <use id="Oval-4" fill="#000000" fill-rule="nonzero" xlink:href="#path-3"></use>
                <g id="Colours/Flat/White" mask="url(#mask-4)" fill="#FFFFFF" fill-rule="nonzero">
                    <rect id="Rectangle" x="0" y="0" width="46" height="45"></rect>
                </g>
            </g>
        </g>
    </g>
</svg>