<?xml version="1.0" encoding="UTF-8"?>
<svg width="46px" height="46px" viewBox="0 0 46 46" version="1.1" xmlns="http://www.w3.org/2000/svg" xmlns:xlink="http://www.w3.org/1999/xlink">
    <!-- Generator: Sketch 55.2 (78181) - https://sketchapp.com -->
    <title>Oval 4</title>
    <desc>Created with Sketch.</desc>
    <defs>
        <path d="M23,46 C10.3025307,46 0,35.7078759 0,23 C0,10.2921241 10.3025307,0 23,0 C35.6974693,0 46,10.2921241 46,23 C46,35.7078759 35.6974693,46 23,46 Z M23,44 C34.6030597,44 44,34.5926418 44,23 C44,11.4073582 34.6030597,2 23,2 C11.3969403,2 2,11.4073582 2,23 C2,34.5926418 11.3969403,44 23,44 Z M19,16.2770242 L19,29.7229758 L30.0731365,23 L19,16.2770242 Z M17,33.2770242 L17,12.7229758 L33.9268635,23 L17,33.2770242 Z" id="path-1"></path>
    </defs>
    <g id="Library" stroke="none" stroke-width="1" fill="none" fill-rule="evenodd">
        <g id="Buttons/Sound/Play/Default">
            <mask id="mask-2" fill="white">
                <use xlink:href="#path-1"></use>
            </mask>
            <use id="Oval-4" fill="#000000" fill-rule="nonzero" xlink:href="#path-1"></use>
        </g>
    </g>
</svg>