<?xml version="1.0" encoding="UTF-8"?>
<svg width="30px" height="33px" viewBox="0 0 30 33" version="1.1" xmlns="http://www.w3.org/2000/svg" xmlns:xlink="http://www.w3.org/1999/xlink">
    <!-- Generator: Sketch 53.2 (72643) - https://sketchapp.com -->
    <title>Icons/Sound</title>
    <desc>Created with Sketch.</desc>
    <defs>
        <path d="M14,0 L17,0 L17,33 L14,33 L14,0 Z M7,6 L10,6 L10,27 L7,27 L7,6 Z M21,6 L24,6 L24,27 L21,27 L21,6 Z M0,12 L3,12 L3,20 L0,20 L0,12 Z M27,12 L30,12 L30,20 L27,20 L27,12 Z" id="path-1"></path>
    </defs>
    <g id="Library" stroke="none" stroke-width="1" fill="none" fill-rule="evenodd">
        <g id="Widgets/Sound" transform="translate(0.000000, -68.000000)">
            <g id="Group-6" transform="translate(0.000000, 2.000000)">
                <g id="Icons/Sound" transform="translate(0.000000, 66.000000)">
                    <mask id="mask-2" fill="white">
                        <use xlink:href="#path-1"></use>
                    </mask>
                    <use id="Combined-Shape" fill="#000000" fill-rule="nonzero" xlink:href="#path-1"></use>
                    <g id="Colours/Flat/Black" mask="url(#mask-2)" fill="#111111" fill-rule="nonzero">
                        <rect id="Rectangle" x="0" y="0" width="30" height="33"></rect>
                    </g>
                </g>
            </g>
        </g>
    </g>
</svg>